<?xml version="1.0" encoding="UTF-8"?>
<svg version="1.1" xmlns="http://www.w3.org/2000/svg" width="390px" height="127.34211px">
<rect width="390px" height="127.34211px" fill="#937cb9"/>
<!-- Generator: Adobe Illustrator 23.1.1, SVG Export Plug-In . SVG Version: 6.00 Build 0)  -->
<svg version="1.1" id="Layer_1" xmlns="http://www.w3.org/2000/svg" xmlns:xlink="http://www.w3.org/1999/xlink" x="25" y="29" width="340" height="69.34211px" viewBox="0 0 380 77.5" style="enable-background:new 0 0 380 77.5;" xml:space="preserve">
<style type="text/css">
	.st0{fill:#FFFFFF;}
</style>
<g>
	<g>
		<path class="st0" d="M1.2,3.1h9.6L22.4,31l12-27.9H43c-0.7,1.3-1.3,2.5-1.6,3.7c-0.3,1.2-0.5,2.8-0.5,4.7v21.4    c0,1.9,0.2,3.5,0.5,4.7c0.3,1.2,0.9,2.4,1.6,3.7H31.6c0.8-1.3,1.3-2.5,1.6-3.8c0.3-1.2,0.5-2.8,0.5-4.6V13.7L21.8,41.2h-3.2    L7.1,13.7v19.4c0,1.8,0.2,3.3,0.5,4.4c0.3,1.2,0.9,2.4,1.6,3.6h-8c0.8-1.3,1.3-2.5,1.6-3.8c0.3-1.2,0.5-2.8,0.5-4.6V11.5    c0-1.8-0.2-3.4-0.5-4.6C2.5,5.6,2,4.4,1.2,3.1z"/>
		<path class="st0" d="M46.1,28c0-4.3,1.3-7.7,3.9-10.2c2.6-2.6,6.1-3.9,10.4-3.9c4.1,0,7.4,1.3,9.9,3.8c2.4,2.5,3.6,5.9,3.6,10.2    c0,4.3-1.3,7.8-3.9,10.4c-2.6,2.6-6,3.9-10.4,3.9c-4.1,0-7.4-1.3-9.9-3.8C47.3,35.8,46.1,32.3,46.1,28z M59.9,16.1    c-1.9,0-3.4,1-4.5,3.1c-1.1,2.1-1.6,5-1.6,8.6c0,3.8,0.6,6.7,1.7,8.9c1.1,2.2,2.6,3.3,4.5,3.3c2,0,3.5-1,4.6-3.1    c1.1-2.1,1.6-5,1.6-8.9c0-3.8-0.6-6.7-1.7-8.8C63.4,17.1,61.9,16.1,59.9,16.1z"/>
		<path class="st0" d="M85.6,13.7v4c2.4-1.3,4.4-2.3,5.9-2.9c1.5-0.6,2.9-0.9,3.9-0.9c2.3,0,3.9,0.8,5,2.4c1.1,1.6,1.6,4.1,1.6,7.4    v9.4c0,1.8,0.2,3.3,0.5,4.4c0.3,1.2,0.9,2.4,1.6,3.6H92.9c0.7-1.3,1.3-2.5,1.6-3.7c0.3-1.2,0.5-2.8,0.5-4.7v-6.6    c0-3.4-0.5-5.7-1.4-6.7c-0.9-1.1-2.7-1.6-5.2-1.6c-0.4,0-0.9,0-1.3,0.1c-0.5,0-0.9,0.1-1.5,0.2v14.6c0,1.9,0.2,3.5,0.5,4.7    c0.4,1.2,0.9,2.4,1.6,3.7H76.5c0.7-1.3,1.3-2.5,1.6-3.8c0.3-1.2,0.5-2.8,0.5-4.6V24c0-1.5-0.2-2.9-0.5-4.2    c-0.3-1.3-0.9-2.6-1.6-3.9L85.6,13.7z"/>
		<path class="st0" d="M115.9,6.5v7.8h8.7v2.8h-8.7v15.1c0,2.2,0.4,3.7,1.2,4.5c0.8,0.8,2.3,1.2,4.6,1.2c0.7,0,1.4,0,2.1-0.1    c0.7,0,1.4-0.1,2.1-0.2c-1.2,1.3-2.6,2.3-4.4,3c-1.8,0.7-3.7,1.1-5.6,1.1c-2.5,0-4.3-0.6-5.3-1.7c-1-1.1-1.5-3.1-1.5-6.1V17.1    h-4.5c1.7-1.2,3.5-2.6,5.4-4.3C111.7,11.1,113.7,9,115.9,6.5z"/>
		<path class="st0" d="M135.3,0v17.6c2.4-1.3,4.4-2.3,5.9-2.9c1.5-0.6,2.9-0.9,3.9-0.9c2.2,0,3.9,0.8,5,2.4c1.1,1.6,1.6,4.1,1.6,7.4    v9.1c0,1.9,0.2,3.5,0.5,4.7c0.3,1.2,0.9,2.4,1.6,3.7h-11.3c0.8-1.3,1.3-2.5,1.6-3.8c0.3-1.2,0.5-2.8,0.5-4.6v-6.6    c0-3.4-0.5-5.6-1.4-6.7c-0.9-1.1-2.7-1.6-5.3-1.6c-0.4,0-0.8,0-1.3,0.1c-0.4,0-0.9,0.1-1.4,0.2v14.9c0,1.8,0.2,3.3,0.5,4.4    c0.3,1.2,0.9,2.4,1.6,3.6h-11.3c0.7-1.3,1.3-2.5,1.6-3.7c0.3-1.2,0.5-2.8,0.5-4.7V10.3c0-1.6-0.2-3-0.6-4.2    c-0.4-1.2-1.1-2.5-2-3.8L135.3,0z"/>
		<path class="st0" d="M165.7,0v32.8c0,1.9,0.2,3.5,0.5,4.7c0.4,1.2,0.9,2.4,1.6,3.7h-11.3c0.7-1.3,1.3-2.5,1.6-3.8    c0.4-1.2,0.5-2.8,0.5-4.6V10.3c0-1.6-0.2-3-0.6-4.2c-0.4-1.2-1.1-2.5-2-3.8L165.7,0z"/>
		<path class="st0" d="M172.1,20.2c-0.8-2.1-2.2-4.1-4-6h12.6c-0.6,0.9-1.1,1.6-1.4,2.1c-0.3,0.5-0.4,1-0.4,1.5c0,0.2,0,0.4,0.1,0.7    c0.1,0.3,0.2,0.7,0.3,1.1l5.5,14.9l4.5-14.3c0.2-0.6,0.3-1,0.4-1.4c0.1-0.3,0.1-0.6,0.1-0.8c0-0.3-0.1-0.8-0.3-1.3    c-0.2-0.5-0.6-1.3-1.2-2.4h8.8c-0.9,0.9-1.7,1.9-2.4,3.1c-0.7,1.1-1.4,2.6-2,4.3l-8,20.7c-1.7,4.5-3.3,7.4-4.7,8.8    c-1.4,1.4-3.3,2-5.6,2c-0.5,0-1.2,0-1.9-0.1c-0.7-0.1-1.5-0.2-2.4-0.4v-6.8l3.7,2.8c0.5,0.4,1,0.7,1.3,0.8c0.4,0.2,0.7,0.3,1,0.3    c0.8,0,1.6-0.5,2.3-1.5c0.7-1,1.7-3,3-6.1l-9.2-21.7C172.2,20.4,172.1,20.3,172.1,20.2L172.1,20.2z"/>
		<path class="st0" d="M210.6,3.1h8.5l18.5,26.4v-18c0-1.9-0.2-3.5-0.5-4.7c-0.3-1.2-0.9-2.4-1.6-3.7h8c-0.7,1.2-1.3,2.4-1.6,3.6    c-0.3,1.2-0.5,2.6-0.5,4.4v0.3v30H237l-20.6-29.2v20.5c0,1.9,0.2,3.5,0.5,4.7c0.3,1.2,0.9,2.4,1.6,3.7h-8c0.7-1.3,1.3-2.5,1.6-3.7    c0.3-1.2,0.5-2.8,0.5-4.7V11.5c0-1.9-0.2-3.5-0.5-4.7C211.8,5.6,211.3,4.3,210.6,3.1z"/>
		<path class="st0" d="M246.1,28c0-4.3,1.3-7.7,3.9-10.2c2.6-2.6,6.1-3.9,10.4-3.9c4.1,0,7.4,1.3,9.9,3.8c2.4,2.5,3.6,5.9,3.6,10.2    c0,4.3-1.3,7.8-3.9,10.4c-2.6,2.6-6,3.9-10.4,3.9c-4.1,0-7.4-1.3-9.9-3.8C247.3,35.8,246.1,32.3,246.1,28z M259.9,16.1    c-1.9,0-3.4,1-4.5,3.1c-1.1,2.1-1.6,5-1.6,8.6c0,3.8,0.6,6.7,1.7,8.9c1.1,2.2,2.6,3.3,4.5,3.3c2,0,3.5-1,4.6-3.1    c1.1-2.1,1.6-5,1.6-8.9c0-3.8-0.6-6.7-1.7-8.8C263.5,17.1,261.9,16.1,259.9,16.1z"/>
		<path class="st0" d="M285.5,6.5v7.8h8.7v2.8h-8.7v15.1c0,2.2,0.4,3.7,1.2,4.5c0.8,0.8,2.3,1.2,4.6,1.2c0.7,0,1.4,0,2.1-0.1    c0.7,0,1.4-0.1,2.1-0.2c-1.2,1.3-2.6,2.3-4.4,3c-1.8,0.7-3.7,1.1-5.6,1.1c-2.5,0-4.3-0.6-5.3-1.7c-1-1.1-1.5-3.1-1.5-6.1V17.1    h-4.5c1.7-1.2,3.5-2.6,5.4-4.3C281.3,11.1,283.3,9,285.5,6.5z"/>
		<path class="st0" d="M305.5,13.7v19.2c0,1.9,0.2,3.5,0.5,4.7c0.3,1.2,0.9,2.4,1.6,3.7h-11.3c0.8-1.3,1.3-2.5,1.6-3.8    c0.3-1.2,0.5-2.8,0.5-4.6V24c0-1.5-0.2-2.9-0.5-4.2c-0.3-1.3-0.9-2.6-1.6-3.9L305.5,13.7z M301.9,1.8c1.4,0,2.5,0.3,3.2,0.8    c0.7,0.5,1,1.4,1,2.5c0,1.1-0.3,1.9-1,2.5c-0.7,0.5-1.8,0.8-3.2,0.8c-1.5,0-2.6-0.3-3.2-0.8c-0.7-0.5-1-1.3-1-2.5    c0-1.1,0.3-2,1-2.5C299.4,2.1,300.5,1.8,301.9,1.8z"/>
		<path class="st0" d="M331.8,14.9v7.6l-6.1-4.8c-0.5-0.4-1-0.7-1.4-0.9c-0.4-0.2-0.8-0.3-1.2-0.3c-1.6,0-3,1-4.1,3    c-1.1,2-1.6,4.6-1.6,7.6c0,3.6,0.9,6.3,2.7,8.1c1.8,1.8,4.6,2.7,8.3,2.7c1.1,0,2,0,2.8-0.1c0.8-0.1,1.5-0.2,2.2-0.4    c-1.5,1.5-3.1,2.7-4.9,3.4c-1.8,0.8-3.7,1.1-5.7,1.1c-3.7,0-6.7-1.3-9-3.8c-2.3-2.5-3.5-5.8-3.5-9.8c0-4.5,1.3-8,4-10.6    c2.7-2.6,6.3-4,10.8-4c1.1,0,2.2,0.1,3.4,0.3C329.6,14.3,330.7,14.5,331.8,14.9z"/>
		<path class="st0" d="M358.4,26.6h-17.1v0.5c0,3.6,0.9,6.3,2.8,8.1c1.9,1.8,4.6,2.8,8.2,2.8c0.8,0,1.7-0.1,2.7-0.2    c1-0.1,2.2-0.3,3.6-0.5c-1.7,1.5-3.5,2.7-5.4,3.5c-1.9,0.8-3.9,1.2-6,1.2c-4,0-7.2-1.2-9.5-3.7c-2.4-2.5-3.6-5.8-3.6-10    c0-4.2,1.2-7.7,3.7-10.4c2.5-2.7,5.7-4,9.6-4c3.4,0,6,1.1,8,3.3c1.9,2.2,2.9,5.2,2.9,9.1V26.6z M351,24.2c0-2.5-0.4-4.5-1.2-5.9    c-0.8-1.4-1.9-2.1-3.3-2.1c-1.7,0-2.9,0.8-3.8,2.4c-0.9,1.6-1.4,3.9-1.4,6.9L351,24.2z"/>
		<path class="st0" d="M378.9,15v6.6c-0.4-0.3-1.1-0.8-1.8-1.4c-3.4-2.5-5.5-3.8-6.4-3.8c-0.9,0-1.7,0.3-2.4,0.9    c-0.6,0.6-1,1.3-1,2.2c0,0.8,0.2,1.4,0.7,2.1c0.5,0.6,1.3,1.3,2.5,1.9l3.9,2.2c2,1.1,3.3,2.2,4.2,3.4c0.8,1.2,1.3,2.6,1.3,4.2    c0,2.6-1,4.7-2.9,6.3s-4.5,2.4-7.7,2.4c-1.4,0-2.9-0.1-4.3-0.4c-1.5-0.3-2.9-0.6-4.3-1.2v-6.7c0.4,0.3,0.9,0.7,1.6,1.3    c3.7,2.9,6.2,4.3,7.5,4.3c1,0,1.8-0.3,2.5-1c0.7-0.7,1-1.5,1-2.5c0-1.3-1.1-2.7-3.3-4l-0.3-0.2l-4-2.4c-1.7-1-2.9-2.1-3.7-3.3    c-0.8-1.2-1.2-2.5-1.2-4c0-2.5,0.9-4.5,2.7-6c1.8-1.4,4.3-2.1,7.5-2.1c1.3,0,2.6,0.1,3.9,0.3C376.4,14.4,377.6,14.6,378.9,15z"/>
	</g>
	<g>
		<path class="st0" d="M0,67c0-1.7,0.5-3.1,1.6-4.2c1-1.1,2.3-1.7,3.9-1.7c1.5,0,2.8,0.6,3.8,1.7c1,1.1,1.5,2.5,1.5,4.2    c0,1.7-0.5,3.1-1.6,4.2c-1,1.1-2.3,1.7-3.9,1.7c-1.5,0-2.8-0.6-3.8-1.7C0.5,70.1,0,68.7,0,67z M5.3,62c-0.9,0-1.7,0.4-2.2,1.2    c-0.5,0.8-0.8,1.9-0.8,3.4c0,1.6,0.3,2.9,0.8,3.9C3.8,71.5,4.5,72,5.5,72c0.9,0,1.7-0.4,2.2-1.2c0.5-0.8,0.8-1.9,0.8-3.4    c0-1.6-0.3-2.9-0.8-3.9C7,62.5,6.3,62,5.3,62z"/>
		<path class="st0" d="M21,55.7v2.5l-1.9-1.5c-0.2-0.2-0.4-0.3-0.5-0.3c-0.1-0.1-0.3-0.1-0.5-0.1c-0.8,0-1.4,0.3-1.8,0.8    c-0.4,0.6-0.6,1.4-0.6,2.5v1.6h2.8v1.1h-2.8v7.1c0,0.6,0.1,1.2,0.2,1.6c0.1,0.4,0.4,0.9,0.7,1.4h-3.9c0.3-0.5,0.5-1,0.7-1.5    c0.1-0.5,0.2-1,0.2-1.5v-0.3v-6.9h-1.5v-1.1h1.5V60c0-1.5,0.4-2.6,1.3-3.4c0.9-0.8,2.1-1.2,3.7-1.2c0.3,0,0.7,0,1.1,0.1    C20.2,55.5,20.6,55.6,21,55.7z"/>
		<path class="st0" d="M28.3,58.1v3.2H32v1.1h-3.7V69c0,1,0.2,1.7,0.5,2c0.4,0.3,1,0.4,2.1,0.4c0.2,0,0.5,0,0.8,0    c0.3,0,0.6-0.1,0.9-0.1c-0.6,0.5-1.2,0.9-1.9,1.2c-0.6,0.3-1.3,0.4-1.9,0.4c-0.9,0-1.6-0.2-2-0.7c-0.4-0.5-0.6-1.4-0.6-2.8v-6.9    h-1.9c0.9-0.7,1.6-1.4,2.3-2.2C27.3,59.5,27.8,58.8,28.3,58.1z"/>
		<path class="st0" d="M36.1,55.4v7c1.2-0.5,2.1-0.8,2.6-1c0.6-0.2,1.1-0.2,1.5-0.2c0.9,0,1.6,0.3,2.1,1c0.5,0.7,0.7,1.7,0.7,3.1V69    c0,0.8,0.1,1.5,0.2,2c0.1,0.5,0.4,1,0.7,1.5H40c0.3-0.5,0.5-1.1,0.7-1.6c0.1-0.5,0.2-1.2,0.2-1.9v-3.1c0-1.3-0.2-2.1-0.7-2.6    c-0.5-0.5-1.4-0.7-2.7-0.7c-0.2,0-0.5,0-0.7,0c-0.2,0-0.5,0-0.7,0.1v6.5c0,0.7,0.1,1.4,0.2,1.8c0.1,0.5,0.4,1,0.7,1.5h-3.8    c0.3-0.5,0.5-1,0.7-1.5c0.1-0.5,0.2-1.2,0.2-2v-9.6c0-0.6-0.1-1.1-0.2-1.7c-0.2-0.5-0.4-1.1-0.8-1.7L36.1,55.4z"/>
		<path class="st0" d="M55.2,66.4h-7.4v0.1c0,1.7,0.4,2.9,1.2,3.7c0.8,0.8,2.1,1.2,3.8,1.2c0.4,0,0.8,0,1.2-0.1    c0.4-0.1,0.9-0.1,1.3-0.2c-0.6,0.6-1.4,1-2.1,1.3c-0.8,0.3-1.6,0.4-2.5,0.4c-1.5,0-2.8-0.5-3.7-1.5c-0.9-1-1.4-2.4-1.4-4.1    c0-0.8,0.1-1.6,0.4-2.3c0.2-0.7,0.6-1.3,1.1-1.9c0.5-0.6,1.1-1,1.7-1.3c0.7-0.3,1.3-0.5,2-0.5c1.4,0,2.5,0.4,3.2,1.3    C54.7,63.4,55.1,64.7,55.2,66.4z M52.7,65.2c0-1-0.2-1.8-0.6-2.3c-0.4-0.5-0.9-0.8-1.6-0.8c-0.8,0-1.5,0.3-2,1    c-0.5,0.6-0.7,1.6-0.8,2.7L52.7,65.2z"/>
		<path class="st0" d="M63.1,56.6h4.8c1,0,1.7,0,2.2,0.1c0.5,0.1,0.9,0.2,1.2,0.4c0.5,0.3,0.8,0.7,1.1,1.3c0.3,0.6,0.4,1.2,0.4,1.8    c0,1.2-0.4,2.1-1.1,2.9c-0.7,0.7-1.7,1.2-3,1.4l3.5,4.8c0.5,0.7,1,1.3,1.5,1.8c0.5,0.5,1,0.9,1.6,1.3h-3.5l-5.7-8.1V69    c0,0.8,0.1,1.5,0.2,2c0.1,0.5,0.4,1,0.7,1.5h-3.9c0.3-0.5,0.5-1,0.7-1.5c0.1-0.5,0.2-1.2,0.2-2v-8.9c0-0.8-0.1-1.5-0.2-2    C63.7,57.7,63.4,57.2,63.1,56.6z M66.1,57.5V64h1.2c1,0,1.8-0.3,2.4-0.9c0.5-0.6,0.8-1.4,0.8-2.4c0-1.1-0.3-1.9-0.8-2.4    c-0.5-0.5-1.3-0.8-2.4-0.8H66.1z"/>
		<path class="st0" d="M75.8,67c0-1.7,0.5-3.1,1.6-4.2c1-1.1,2.3-1.7,3.9-1.7c1.5,0,2.8,0.6,3.8,1.7c1,1.1,1.5,2.5,1.5,4.2    c0,1.7-0.5,3.1-1.6,4.2c-1,1.1-2.3,1.7-3.9,1.7c-1.5,0-2.8-0.6-3.8-1.7C76.3,70.1,75.8,68.7,75.8,67z M81.2,62    c-0.9,0-1.7,0.4-2.2,1.2c-0.5,0.8-0.8,1.9-0.8,3.4c0,1.6,0.3,2.9,0.8,3.9c0.6,0.9,1.3,1.4,2.3,1.4c0.9,0,1.7-0.4,2.2-1.2    c0.5-0.8,0.8-1.9,0.8-3.4c0-1.6-0.3-2.9-0.8-3.9C82.9,62.5,82.1,62,81.2,62z"/>
		<path class="st0" d="M88.8,63.7c-0.4-1-1-1.8-1.6-2.4h4.3c-0.2,0.3-0.4,0.6-0.5,0.8c-0.1,0.2-0.2,0.4-0.2,0.6c0,0.1,0,0.3,0.1,0.6    c0,0.1,0,0.1,0,0.1l2.5,6.9l2.1-6.9c0.1-0.2,0.1-0.3,0.1-0.5c0-0.1,0-0.3,0.1-0.4c0-0.1,0-0.3-0.1-0.5c-0.1-0.2-0.3-0.4-0.5-0.7    h3.3c-0.3,0.3-0.7,0.7-0.9,1.1c-0.3,0.4-0.5,0.9-0.7,1.5L93,74.3c-0.4,1.1-0.9,1.9-1.5,2.5c-0.6,0.5-1.3,0.8-2.2,0.8    c-0.2,0-0.5,0-0.7,0c-0.3,0-0.6-0.1-0.9-0.1v-2.6l1.5,1.3c0.1,0.1,0.3,0.2,0.4,0.2c0.1,0.1,0.3,0.1,0.3,0.1c0.4,0,0.8-0.3,1.2-0.9    c0.4-0.6,0.8-1.5,1.2-2.8l-3.6-8.8C88.9,63.8,88.8,63.8,88.8,63.7L88.8,63.7z"/>
		<path class="st0" d="M107.2,64.6v4.2c0,0.8,0.1,1.5,0.2,1.9c0.2,0.4,0.4,0.9,0.8,1.3l-2.5,0.7c-0.1-0.2-0.2-0.5-0.3-0.7    c-0.1-0.2-0.1-0.4-0.2-0.7l0,0c-1.7,0.9-2.8,1.3-3.3,1.3c-0.8,0-1.5-0.3-2.1-0.9c-0.6-0.6-0.9-1.4-0.9-2.3c0-1.1,0.4-1.9,1.2-2.4    c0.8-0.5,2.1-0.8,3.8-0.8c0.1,0,0.3,0,0.5,0c0.2,0,0.4,0,0.8,0v-2.2c0-0.7-0.2-1.2-0.5-1.6c-0.3-0.4-0.7-0.6-1.3-0.6    c-0.4,0-1.5,0.7-3.1,2l-0.3,0.3v-2.5c0.8-0.2,1.6-0.4,2.3-0.5c0.7-0.1,1.4-0.2,1.9-0.2c1.2,0,2,0.2,2.4,0.7    C107,62.2,107.2,63.2,107.2,64.6z M105.1,67.1c-1.5,0.1-2.6,0.4-3.2,0.7c-0.6,0.3-0.9,0.8-0.9,1.5c0,0.6,0.2,1.2,0.7,1.5    c0.5,0.4,1.1,0.5,2,0.5c0.1,0,0.3,0,0.6,0c0.2,0,0.5,0,0.8-0.1V67.1z"/>
		<path class="st0" d="M112.6,55.4V69c0,0.8,0.1,1.5,0.2,2c0.1,0.5,0.4,1,0.7,1.5h-3.8c0.3-0.5,0.5-1.1,0.7-1.6    c0.1-0.5,0.2-1.2,0.2-1.9V58.7c0-0.4-0.1-0.9-0.2-1.3c-0.2-0.4-0.4-0.9-0.7-1.4L112.6,55.4z"/>
		<path class="st0" d="M127.9,56.4l4.3,12.7c0.3,0.8,0.6,1.5,0.9,2.1c0.3,0.5,0.7,1,1.1,1.4h-4.3c0.3-0.3,0.4-0.6,0.6-0.8    c0.1-0.2,0.2-0.4,0.2-0.6c0-0.1,0-0.2-0.1-0.4c0-0.2-0.1-0.4-0.2-0.7l-1.3-3.9h-4.9l-1.4,4.2c-0.1,0.2-0.1,0.3-0.1,0.5    c0,0.1,0,0.3,0,0.4c0,0.2,0.1,0.4,0.2,0.6c0.1,0.2,0.3,0.5,0.6,0.7h-3.7c0.4-0.4,0.7-0.8,1-1.4c0.3-0.5,0.7-1.3,1-2.2l4.7-12.1    L127.9,56.4z M126.7,58.8l-2.1,6.3h4.1L126.7,58.8z"/>
		<path class="st0" d="M141.7,61.5v2.6c-1.2-0.9-2-1.5-2.4-1.7c-0.4-0.2-0.8-0.4-1-0.4c-0.4,0-0.8,0.2-1.1,0.5    c-0.3,0.3-0.5,0.7-0.5,1.1c0,0.4,0.1,0.7,0.4,1c0.3,0.3,0.7,0.6,1.2,0.9l1.6,0.9c0.8,0.4,1.4,0.9,1.7,1.3c0.3,0.4,0.5,1,0.5,1.6    c0,1.1-0.4,2-1.1,2.6c-0.7,0.6-1.8,0.9-3.1,0.9c-0.4,0-0.9,0-1.5-0.1c-0.5-0.1-1.1-0.2-1.7-0.4v-2.7c1.2,1,2.1,1.6,2.5,1.9    c0.5,0.3,0.8,0.4,1.1,0.4c0.5,0,0.9-0.2,1.3-0.5c0.4-0.4,0.5-0.8,0.5-1.3c0-0.4-0.1-0.8-0.3-1c-0.2-0.3-0.6-0.6-1.2-0.9l-1.3-0.6    c-0.9-0.4-1.5-0.9-1.9-1.4c-0.4-0.5-0.6-1.1-0.6-1.8c0-1,0.4-1.8,1.1-2.4c0.7-0.6,1.6-0.9,2.8-0.9c0.4,0,0.9,0,1.4,0.1    C140.7,61.3,141.2,61.4,141.7,61.5z"/>
		<path class="st0" d="M146.9,58.1v3.2h3.7v1.1h-3.7V69c0,1,0.2,1.7,0.5,2c0.4,0.3,1,0.4,2.1,0.4c0.2,0,0.5,0,0.8,0    c0.3,0,0.6-0.1,0.9-0.1c-0.6,0.5-1.2,0.9-1.9,1.2c-0.6,0.3-1.3,0.4-1.9,0.4c-0.9,0-1.6-0.2-2-0.7c-0.4-0.5-0.6-1.4-0.6-2.8v-6.9    h-1.9c0.9-0.7,1.6-1.4,2.3-2.2C145.9,59.5,146.4,58.8,146.9,58.1z"/>
		<path class="st0" d="M154.8,61.1v1.6c0.7-0.6,1.3-0.9,1.7-1.2c0.5-0.2,0.9-0.4,1.4-0.4c0.1,0,0.3,0,0.4,0.1c0.2,0,0.3,0.1,0.5,0.1    v2.4c-0.4-0.3-0.8-0.5-1.3-0.7c-0.5-0.2-1-0.2-1.5-0.2c-0.2,0-0.5,0-0.7,0c-0.2,0-0.4,0-0.6,0.1V69c0,0.8,0.1,1.5,0.2,2    c0.1,0.5,0.4,1,0.7,1.5h-3.8c0.3-0.5,0.5-1.1,0.7-1.6c0.1-0.5,0.2-1.2,0.2-1.9v-4.6c0-0.4-0.1-0.9-0.2-1.3    c-0.2-0.4-0.4-0.9-0.7-1.4L154.8,61.1z"/>
		<path class="st0" d="M160,67c0-1.7,0.5-3.1,1.6-4.2c1-1.1,2.3-1.7,3.9-1.7c1.5,0,2.8,0.6,3.8,1.7c1,1.1,1.5,2.5,1.5,4.2    c0,1.7-0.5,3.1-1.6,4.2c-1,1.1-2.3,1.7-3.9,1.7c-1.5,0-2.8-0.6-3.8-1.7C160.5,70.1,160,68.7,160,67z M165.3,62    c-0.9,0-1.7,0.4-2.2,1.2c-0.5,0.8-0.8,1.9-0.8,3.4c0,1.6,0.3,2.9,0.8,3.9c0.6,0.9,1.3,1.4,2.3,1.4c0.9,0,1.7-0.4,2.2-1.2    c0.5-0.8,0.8-1.9,0.8-3.4c0-1.6-0.3-2.9-0.8-3.9C167,62.5,166.3,62,165.3,62z"/>
		<path class="st0" d="M175.7,61.1v1.3c1.2-0.5,2.1-0.8,2.6-1c0.6-0.2,1.1-0.2,1.5-0.2c0.9,0,1.6,0.3,2.1,1c0.5,0.7,0.7,1.7,0.7,3.1    V69c0,0.8,0.1,1.5,0.2,2c0.1,0.5,0.4,1,0.7,1.5h-3.8c0.3-0.5,0.5-1.1,0.7-1.6c0.1-0.5,0.2-1.2,0.2-1.9v-3.1c0-1.3-0.2-2.1-0.7-2.6    c-0.5-0.5-1.4-0.7-2.7-0.7c-0.2,0-0.5,0-0.7,0c-0.2,0-0.5,0-0.7,0.1v6.5c0,0.7,0.1,1.4,0.2,1.8c0.1,0.5,0.4,1,0.7,1.5h-3.8    c0.3-0.5,0.5-1,0.7-1.5c0.1-0.5,0.2-1.2,0.2-2v-4.6c0-0.5-0.1-0.9-0.2-1.3c-0.1-0.4-0.4-0.9-0.7-1.3L175.7,61.1z"/>
		<path class="st0" d="M185.1,67c0-1.7,0.5-3.1,1.6-4.2c1-1.1,2.3-1.7,3.9-1.7c1.5,0,2.8,0.6,3.8,1.7c1,1.1,1.5,2.5,1.5,4.2    c0,1.7-0.5,3.1-1.6,4.2c-1,1.1-2.3,1.7-3.9,1.7c-1.5,0-2.8-0.6-3.8-1.7C185.6,70.1,185.1,68.7,185.1,67z M190.4,62    c-0.9,0-1.7,0.4-2.2,1.2c-0.5,0.8-0.8,1.9-0.8,3.4c0,1.6,0.3,2.9,0.8,3.9c0.6,0.9,1.3,1.4,2.3,1.4c0.9,0,1.7-0.4,2.2-1.2    c0.5-0.8,0.8-1.9,0.8-3.4c0-1.6-0.3-2.9-0.8-3.9C192.1,62.5,191.3,62,190.4,62z"/>
		<path class="st0" d="M200.8,61.1v1.3c1.1-0.5,1.9-0.8,2.4-1c0.5-0.2,1-0.2,1.4-0.2c0.5,0,0.9,0.1,1.3,0.3c0.4,0.2,0.7,0.5,1,0.9    c1.1-0.5,1.9-0.8,2.5-1c0.6-0.2,1.1-0.2,1.5-0.2c1.1,0,1.9,0.3,2.4,1c0.5,0.6,0.7,1.7,0.7,3.1v3.9c0,0.7,0.1,1.4,0.2,1.8    c0.1,0.5,0.4,1,0.7,1.5H211c0.3-0.5,0.5-1,0.7-1.5c0.1-0.5,0.2-1.2,0.2-2v-3.1c0-1.3-0.2-2.2-0.7-2.6c-0.5-0.5-1.4-0.7-2.7-0.7    c-0.2,0-0.4,0-0.7,0c-0.2,0-0.5,0-0.8,0.1c0.1,0.2,0.2,0.5,0.3,0.9c0.1,0.4,0.1,1,0.1,1.7V69c0,0.8,0.1,1.5,0.2,2    c0.1,0.5,0.4,1,0.7,1.5h-3.8c0.3-0.5,0.5-1.1,0.7-1.6c0.1-0.5,0.2-1.2,0.2-1.9v-3.1c0-1.2-0.2-2.1-0.7-2.6    c-0.5-0.5-1.3-0.7-2.4-0.7c-0.2,0-0.4,0-0.6,0c-0.2,0-0.5,0-0.7,0.1V69c0,0.8,0.1,1.5,0.2,2c0.1,0.5,0.4,1,0.7,1.5h-3.8    c0.3-0.5,0.5-1.1,0.7-1.6c0.1-0.5,0.2-1.2,0.2-1.9v-4.6c0-0.4-0.1-0.9-0.2-1.3c-0.2-0.4-0.4-0.9-0.7-1.4L200.8,61.1z"/>
		<path class="st0" d="M219.5,61.1v8c0,0.8,0.1,1.5,0.2,2c0.1,0.5,0.4,1,0.7,1.5h-3.8c0.3-0.5,0.5-1.1,0.7-1.6    c0.1-0.5,0.2-1.2,0.2-1.9v-4.6c0-0.4-0.1-0.9-0.2-1.3c-0.2-0.4-0.4-0.9-0.7-1.4L219.5,61.1z M218.4,55.7c0.4,0,0.7,0.1,0.9,0.4    c0.2,0.2,0.4,0.6,0.4,0.9c0,0.4-0.1,0.8-0.3,1c-0.2,0.2-0.5,0.3-1,0.3c-0.4,0-0.7-0.1-0.9-0.3c-0.2-0.2-0.3-0.6-0.3-1    c0-0.4,0.1-0.7,0.3-0.9C217.7,55.8,218,55.7,218.4,55.7z"/>
		<path class="st0" d="M231.1,61.6v2.6l-2.4-1.7c-0.2-0.1-0.4-0.2-0.6-0.3c-0.2-0.1-0.3-0.1-0.5-0.1c-0.9,0-1.6,0.4-2.2,1.3    c-0.6,0.9-0.9,2-0.9,3.4c0,1.5,0.4,2.7,1.1,3.4c0.8,0.8,1.9,1.2,3.4,1.2c0.5,0,0.9,0,1.4,0c0.4,0,0.9-0.1,1.3-0.2    c-0.7,0.6-1.4,1-2.1,1.2c-0.7,0.3-1.5,0.4-2.3,0.4c-1.5,0-2.7-0.5-3.6-1.5c-1-1-1.4-2.3-1.4-3.8c0-1.9,0.5-3.5,1.6-4.6    c1.1-1.2,2.5-1.8,4.3-1.8c0.4,0,0.9,0,1.3,0.1C230,61.3,230.5,61.4,231.1,61.6z"/>
		<path class="st0" d="M240.6,64.6v4.2c0,0.8,0.1,1.5,0.2,1.9c0.2,0.4,0.4,0.9,0.8,1.3l-2.5,0.7c-0.1-0.2-0.2-0.5-0.3-0.7    c-0.1-0.2-0.1-0.4-0.2-0.7l0,0c-1.7,0.9-2.8,1.3-3.3,1.3c-0.8,0-1.5-0.3-2.1-0.9c-0.6-0.6-0.9-1.4-0.9-2.3c0-1.1,0.4-1.9,1.2-2.4    s2.1-0.8,3.8-0.8c0.1,0,0.3,0,0.5,0c0.2,0,0.4,0,0.8,0v-2.2c0-0.7-0.2-1.2-0.5-1.6c-0.3-0.4-0.7-0.6-1.3-0.6c-0.4,0-1.5,0.7-3.1,2    l-0.3,0.3v-2.5c0.8-0.2,1.6-0.4,2.3-0.5c0.7-0.1,1.4-0.2,1.9-0.2c1.2,0,2,0.2,2.4,0.7C240.4,62.2,240.6,63.2,240.6,64.6z     M238.6,67.1c-1.5,0.1-2.6,0.4-3.2,0.7c-0.6,0.3-0.9,0.8-0.9,1.5c0,0.6,0.2,1.2,0.7,1.5c0.5,0.4,1.1,0.5,2,0.5c0.1,0,0.3,0,0.6,0    c0.2,0,0.5,0,0.8-0.1V67.1z"/>
		<path class="st0" d="M246,55.4V69c0,0.8,0.1,1.5,0.2,2c0.1,0.5,0.4,1,0.7,1.5h-3.8c0.3-0.5,0.5-1.1,0.7-1.6    c0.1-0.5,0.2-1.2,0.2-1.9V58.7c0-0.4-0.1-0.9-0.2-1.3c-0.2-0.4-0.4-0.9-0.7-1.4L246,55.4z"/>
		<path class="st0" d="M263.6,56.9v2.8l-2.4-1.8c-0.2-0.2-0.4-0.3-0.7-0.4c-0.2-0.1-0.4-0.1-0.7-0.1c-0.7,0-1.4,0.3-1.9,0.8    c-0.5,0.5-0.8,1.1-0.8,1.9c0,0.6,0.1,1.1,0.4,1.5c0.3,0.4,0.9,0.9,1.8,1.5l2.6,1.7c0.8,0.6,1.4,1.1,1.7,1.6    c0.3,0.5,0.5,1.2,0.5,1.9c0,1.4-0.5,2.5-1.5,3.4c-1,0.9-2.3,1.3-3.9,1.3c-0.6,0-1.3-0.1-1.9-0.2c-0.6-0.1-1.3-0.3-2-0.6v-2.8    l2.6,2c0.3,0.2,0.5,0.3,0.7,0.4c0.2,0.1,0.4,0.1,0.6,0.1c1,0,1.7-0.3,2.4-0.8c0.6-0.5,0.9-1.2,0.9-2c0-0.5-0.1-0.9-0.4-1.3    c-0.2-0.4-0.7-0.8-1.3-1.2l-2.8-2c-0.9-0.6-1.5-1.2-1.8-1.8c-0.4-0.6-0.5-1.3-0.5-2.1c0-1.2,0.5-2.2,1.4-3    c0.9-0.8,2.1-1.2,3.5-1.2c0.5,0,1.1,0,1.7,0.1C262.4,56.6,263,56.8,263.6,56.9z"/>
		<path class="st0" d="M266.1,67c0-1.7,0.5-3.1,1.6-4.2c1-1.1,2.3-1.7,3.9-1.7c1.5,0,2.8,0.6,3.8,1.7c1,1.1,1.5,2.5,1.5,4.2    c0,1.7-0.5,3.1-1.6,4.2c-1,1.1-2.3,1.7-3.9,1.7c-1.5,0-2.8-0.6-3.8-1.7C266.6,70.1,266.1,68.7,266.1,67z M271.4,62    c-0.9,0-1.7,0.4-2.2,1.2c-0.5,0.8-0.8,1.9-0.8,3.4c0,1.6,0.3,2.9,0.8,3.9c0.6,0.9,1.3,1.4,2.3,1.4c0.9,0,1.7-0.4,2.2-1.2    c0.5-0.8,0.8-1.9,0.8-3.4c0-1.6-0.3-2.9-0.8-3.9C273.2,62.5,272.4,62,271.4,62z"/>
		<path class="st0" d="M287.6,61.6v2.6l-2.4-1.7c-0.2-0.1-0.4-0.2-0.6-0.3c-0.2-0.1-0.3-0.1-0.5-0.1c-0.9,0-1.6,0.4-2.2,1.3    c-0.6,0.9-0.9,2-0.9,3.4c0,1.5,0.4,2.7,1.1,3.4c0.8,0.8,1.9,1.2,3.4,1.2c0.5,0,0.9,0,1.4,0c0.4,0,0.9-0.1,1.3-0.2    c-0.7,0.6-1.4,1-2.1,1.2c-0.7,0.3-1.5,0.4-2.3,0.4c-1.5,0-2.7-0.5-3.6-1.5c-1-1-1.4-2.3-1.4-3.8c0-1.9,0.5-3.5,1.6-4.6    c1.1-1.2,2.5-1.8,4.3-1.8c0.4,0,0.9,0,1.3,0.1C286.6,61.3,287.1,61.4,287.6,61.6z"/>
		<path class="st0" d="M292,61.1v8c0,0.8,0.1,1.5,0.2,2c0.1,0.5,0.4,1,0.7,1.5h-3.8c0.3-0.5,0.5-1.1,0.7-1.6    c0.1-0.5,0.2-1.2,0.2-1.9v-4.6c0-0.4-0.1-0.9-0.2-1.3c-0.2-0.4-0.4-0.9-0.7-1.4L292,61.1z M290.9,55.7c0.4,0,0.7,0.1,0.9,0.4    c0.2,0.2,0.4,0.6,0.4,0.9c0,0.4-0.1,0.8-0.3,1c-0.2,0.2-0.5,0.3-1,0.3c-0.4,0-0.7-0.1-0.9-0.3c-0.2-0.2-0.3-0.6-0.3-1    c0-0.4,0.1-0.7,0.3-0.9C290.3,55.8,290.6,55.7,290.9,55.7z"/>
		<path class="st0" d="M304.5,66.4h-7.4v0.1c0,1.7,0.4,2.9,1.2,3.7c0.8,0.8,2.1,1.2,3.8,1.2c0.4,0,0.8,0,1.2-0.1    c0.4-0.1,0.9-0.1,1.3-0.2c-0.6,0.6-1.4,1-2.1,1.3c-0.8,0.3-1.6,0.4-2.5,0.4c-1.5,0-2.8-0.5-3.7-1.5c-0.9-1-1.4-2.4-1.4-4.1    c0-0.8,0.1-1.6,0.4-2.3c0.2-0.7,0.6-1.3,1.1-1.9c0.5-0.6,1.1-1,1.7-1.3c0.7-0.3,1.3-0.5,2-0.5c1.4,0,2.5,0.4,3.2,1.3    C304.1,63.4,304.5,64.7,304.5,66.4z M302.1,65.2c0-1-0.2-1.8-0.6-2.3c-0.4-0.5-0.9-0.8-1.6-0.8c-0.8,0-1.5,0.3-2,1    c-0.5,0.6-0.7,1.6-0.8,2.7L302.1,65.2z"/>
		<path class="st0" d="M309.2,58.1v3.2h3.7v1.1h-3.7V69c0,1,0.2,1.7,0.5,2c0.4,0.3,1,0.4,2.1,0.4c0.2,0,0.5,0,0.8,0    c0.3,0,0.6-0.1,0.9-0.1c-0.6,0.5-1.2,0.9-1.9,1.2c-0.6,0.3-1.3,0.4-1.9,0.4c-0.9,0-1.6-0.2-2-0.7c-0.4-0.5-0.6-1.4-0.6-2.8v-6.9    h-1.9c0.9-0.7,1.6-1.4,2.3-2.2C308.2,59.5,308.8,58.8,309.2,58.1z"/>
		<path class="st0" d="M314.4,63.7c-0.4-1-1-1.8-1.6-2.4h4.3c-0.2,0.3-0.4,0.6-0.5,0.8c-0.1,0.2-0.2,0.4-0.2,0.6    c0,0.1,0,0.3,0.1,0.6c0,0.1,0,0.1,0,0.1l2.5,6.9l2.1-6.9c0.1-0.2,0.1-0.3,0.1-0.5c0-0.1,0-0.3,0.1-0.4c0-0.1,0-0.3-0.1-0.5    c-0.1-0.2-0.3-0.4-0.5-0.7h3.3c-0.3,0.3-0.7,0.7-0.9,1.1c-0.3,0.4-0.5,0.9-0.7,1.5l-3.8,10.3c-0.4,1.1-0.9,1.9-1.5,2.5    c-0.6,0.5-1.3,0.8-2.2,0.8c-0.2,0-0.5,0-0.7,0c-0.3,0-0.6-0.1-0.9-0.1v-2.6l1.5,1.3c0.1,0.1,0.3,0.2,0.4,0.2    c0.1,0.1,0.3,0.1,0.3,0.1c0.4,0,0.8-0.3,1.2-0.9c0.4-0.6,0.8-1.5,1.2-2.8l-3.6-8.8C314.4,63.8,314.4,63.8,314.4,63.7L314.4,63.7z"/>
	</g>
</g>
</svg>
</svg>